<?xml version="1.0" encoding="utf-8"?>
<!-- Generator: Adobe Illustrator 23.1.0, SVG Export Plug-In . SVG Version: 6.00 Build 0)  -->
<svg version="1.1" id="Layer_1" xmlns="http://www.w3.org/2000/svg" xmlns:xlink="http://www.w3.org/1999/xlink" x="0px" y="0px"
	 viewBox="0 0 1920 1080" style="enable-background:new 0 0 1920 1080;" xml:space="preserve">
<style type="text/css">
	.st0{fill:#FFFFFF;}
</style>
<path class="st0" d="M1919.36,536.2c-3.55-2.61-9.53-5.71-16.06-8.42c-87.1-36.14-88.59-28.66-182.88-28.66
	c-94.3,0-94.3,29.8-188.6,29.8c-94.29,0-94.29-29.8-188.59-29.8c-94.29,0-94.29,29.8-188.59,29.8c-94.29,0-94.29-29.8-188.59-29.8
	c-94.29,0-94.29,29.8-188.59,29.8c-94.29,0-94.29-29.8-188.59-29.8c-94.29,0-94.29,29.8-188.59,29.8
	c-94.29,0-94.29-29.8-188.59-29.8c-94.29,0-117.55,36.54-211.85,36.54v52h1920L1919.36,536.2
	C1918.85,535.78,1919.94,536.63,1919.36,536.2z"/>
<path class="st0" d="M3838.37,536c-3.55-2.61-8.39-5.17-14.93-7.88c-87.1-36.14-88.59-28.66-182.88-28.66s-94.3,29.8-188.6,29.8
	c-94.29,0-94.29-29.8-188.59-29.8c-94.29,0-94.29,29.8-188.59,29.8c-94.29,0-94.29-29.8-188.59-29.8
	c-94.29,0-94.29,29.8-188.59,29.8s-94.29-29.8-188.59-29.8c-94.29,0-94.29,29.8-188.59,29.8s-94.29-29.8-188.59-29.8
	c-94.29,0-118.19,36.75-212.48,36.75L1920,588h1920v-50.72C3839.49,536.85,3838.95,536.43,3838.37,536z"/>
</svg>
